<svg version="1.1" id="Layer_1" xmlns="http://www.w3.org/2000/svg" xmlns:xlink="http://www.w3.org/1999/xlink" x="0px" y="0px"
	 width="100%" viewBox="0 0 204 204" enable-background="new 0 0 204 204" xml:space="preserve">
<path fill="#EF5338" opacity="1.000000" stroke="none" 
	d="
M87.725250,1.238978 
	C96.354233,1.000000 104.708466,1.000000 113.531349,1.000000 
	C114.729797,1.731508 115.628540,1.463621 116.744614,1.210398 
	C117.000000,1.000000 117.500000,1.000000 117.750000,1.000000 
	C119.958122,2.795680 122.469688,1.901464 124.698189,2.281323 
	C143.687485,5.518147 159.746368,14.588742 173.763779,27.337246 
	C186.137131,38.590511 195.030823,52.360775 200.851395,68.072952 
	C202.360474,72.146584 203.483826,76.302887 203.490967,81.084518 
	C203.545959,87.112984 203.811386,92.735382 204.775238,98.664001 
	C205.000000,102.692909 205.000000,106.385818 205.000000,110.539368 
	C204.244370,111.773315 204.578323,112.753242 204.496704,114.008743 
	C204.494766,115.317833 204.503143,116.272591 204.438141,117.589432 
	C204.931000,130.911850 200.362869,142.424133 194.098770,153.374451 
	C180.101730,177.842911 159.683701,194.437286 132.763885,202.977417 
	C130.071884,203.831421 127.121872,203.121002 124.274361,204.751221 
	C112.312439,205.000000 100.624878,205.000000 88.468658,205.000000 
	C84.665054,202.843460 80.875031,204.414169 77.317970,203.678375 
	C61.235821,200.351730 47.571301,192.390259 35.217022,181.975983 
	C20.355812,169.448456 10.278271,153.638504 3.828377,135.377579 
	C1.896254,129.907333 2.544867,124.228569 1.716502,118.316010 
	C1.387960,116.510002 1.598082,115.039345 1.218855,113.291733 
	C1.000000,107.311958 1.000000,101.623917 1.000000,95.467941 
	C1.973725,93.582443 1.359538,92.015549 1.211027,90.256149 
	C1.000000,88.611107 1.000000,87.222221 1.000000,85.416664 
	C1.300739,84.627518 1.711457,84.515602 2.166121,84.507797 
	C1.933846,84.448112 1.692406,84.465263 1.229007,84.211655 
	C1.000000,83.555557 1.000000,83.111107 1.000000,82.333328 
	C1.452438,81.510490 2.096780,81.026367 2.113562,80.379196 
	C2.341728,71.580658 6.477909,64.136467 10.136395,56.475430 
	C20.551943,34.664795 37.259850,19.365644 58.769756,8.948559 
	C67.832886,4.559355 77.288879,1.659282 87.725250,1.238978 
z"/>
<path fill="#000000" opacity="1.000000" stroke="none" 
	d="
M202.242722,81.164047 
	C200.612717,66.946007 194.009888,55.109360 186.287994,44.083218 
	C178.786194,33.371311 169.315582,24.407915 158.023590,17.375917 
	C146.045425,9.916605 133.318024,4.880585 119.352272,2.963680 
	C118.623489,2.863648 118.124428,2.605733 118.014267,1.411829 
	C145.926895,1.000000 173.854050,1.053547 201.780289,0.917764 
	C204.595093,0.904078 205.089813,1.543154 205.076187,4.264099 
	C204.947937,29.863111 205.000000,55.463028 205.000000,81.531342 
	C203.950150,82.831261 203.119156,82.513252 202.242722,81.164047 
z"/>
<path fill="#000000" opacity="1.000000" stroke="none" 
	d="
M1.861310,117.596672 
	C4.084949,124.859718 3.477613,132.461624 6.896291,139.171066 
	C11.423767,148.056625 15.194020,157.216370 21.714863,165.166275 
	C26.299973,170.756241 31.047857,176.075897 36.420586,180.746170 
	C47.112965,190.040558 59.257008,196.911499 72.894714,201.115616 
	C77.991776,202.686874 83.439346,202.150879 88.199623,204.596054 
	C60.070572,205.000000 32.140869,204.945465 4.212124,205.083344 
	C1.380176,205.097336 0.913281,204.432037 0.925254,201.727753 
	C1.047438,174.131378 1.000000,146.534241 1.000000,118.468658 
	C1.173015,117.795128 1.346029,117.590248 1.861310,117.596672 
z"/>
<path fill="#000000" opacity="1.000000" stroke="none" 
	d="
M87.531342,1.000000 
	C88.616409,3.166631 86.987808,2.907769 85.788040,2.980750 
	C71.659706,3.840160 59.321102,9.663192 47.619747,17.016323 
	C41.330208,20.968670 36.085922,26.227585 30.543293,31.184805 
	C17.459162,42.887005 10.686494,57.894043 4.543068,73.606575 
	C3.380075,76.581070 5.524935,80.640579 1.274046,82.300125 
	C1.000000,56.067879 1.059609,30.135424 0.915315,4.204104 
	C0.899463,1.355407 1.592016,0.914747 4.279717,0.926435 
	C31.873623,1.046431 59.468254,1.000000 87.531342,1.000000 
z"/>
<path fill="#000000" opacity="1.000000" stroke="none" 
	d="
M124.468658,205.000000 
	C123.102715,202.934769 125.006035,202.282867 126.032631,202.197525 
	C139.779266,201.054733 151.134140,194.068832 162.110291,186.776123 
	C166.763596,183.684402 170.675659,178.969589 174.929932,175.257904 
	C180.927231,170.025467 185.571793,163.993073 189.668518,157.582275 
	C196.058823,147.582321 201.103226,136.845169 203.113159,124.902092 
	C203.495392,122.630760 202.228760,120.478806 203.532043,118.070679 
	C204.045914,117.673813 204.269150,117.531555 204.746185,117.694649 
	C205.000000,145.926895 204.946457,173.854050 205.082230,201.780289 
	C205.095917,204.595093 204.456848,205.089813 201.735901,205.076187 
	C176.136887,204.947937 150.536972,205.000000 124.468658,205.000000 
z"/>
<path fill="#CA5740" opacity="1.000000" stroke="none" 
	d="
M202.056244,81.280014 
	C202.868774,81.396652 203.671051,81.973671 204.736664,82.275345 
	C205.000000,87.354927 205.000000,92.709862 205.000000,98.532394 
	C201.808456,93.624512 202.336792,87.612358 202.056244,81.280014 
z"/>
<path fill="#FFAA92" opacity="1.000000" stroke="none" 
	d="
M1.000000,90.416664 
	C2.918541,91.299164 1.917342,92.964134 1.284859,94.773613 
	C1.000000,93.611107 1.000000,92.222221 1.000000,90.416664 
z"/>
<path fill="#FFC6B0" opacity="1.000000" stroke="none" 
	d="
M2.189135,117.434753 
	C2.009511,117.880920 1.815447,117.953873 1.310692,118.013412 
	C1.000000,116.611107 1.000000,115.222221 1.000000,113.416664 
	C2.520234,114.027405 1.901792,115.673363 2.189135,117.434753 
z"/>
<path fill="#FFDBB2" opacity="1.000000" stroke="none" 
	d="
M205.000000,117.600006 
	C204.798172,118.006516 204.596329,118.013039 204.108597,117.917816 
	C203.896942,116.815468 203.971176,115.814865 204.095581,114.440857 
	C204.271866,113.850357 204.397995,113.633270 204.762054,113.708084 
	C205.000000,115.066673 205.000000,116.133339 205.000000,117.600006 
z"/>
<path fill="#FFAC95" opacity="1.000000" stroke="none" 
	d="
M205.000000,113.625000 
	C205.000000,114.000000 204.574127,114.050751 204.359940,114.059097 
	C204.244354,113.177681 204.342941,112.287926 204.720764,111.199081 
	C205.000000,111.750000 205.000000,112.500000 205.000000,113.625000 
z"/>
<path fill="#FFE0B5" opacity="1.000000" stroke="none" 
	d="
M116.625000,1.000000 
	C116.382973,2.498224 115.340805,2.027530 114.152046,1.291056 
	C114.750000,1.000000 115.500000,1.000000 116.625000,1.000000 
z"/>
<path fill="#000000" opacity="1.000000" stroke="none" 
	d="
M1.000000,84.250000 
	C1.461978,83.228081 1.951813,83.441277 2.380707,84.004097 
	C3.197767,85.076263 1.981857,85.172722 1.279670,85.324432 
	C1.000000,85.000000 1.000000,84.500000 1.000000,84.250000 
z"/>
<path fill="#000000" opacity="1.000000" stroke="none" 
	d="
M109.619705,55.036419 
	C123.635017,59.022758 132.121536,68.197868 136.710464,81.296097 
	C137.126511,82.483582 136.944382,83.880623 137.105118,85.590927 
	C137.289246,86.288879 137.408295,86.576263 137.670685,87.307632 
	C138.233200,98.317101 137.894485,108.886780 137.978271,119.919868 
	C137.946365,121.010834 137.833435,121.618706 137.398865,122.615036 
	C136.636902,129.765900 133.487335,135.300293 129.766129,140.826614 
	C123.838043,149.630341 115.130959,153.382401 105.370415,154.697769 
	C96.221054,155.930786 88.228249,152.008759 81.037613,146.553589 
	C79.188698,145.150909 80.561386,144.093430 81.527252,142.898346 
	C83.559227,140.384140 87.169861,139.524139 88.216827,136.016953 
	C101.623177,149.592834 120.945473,140.581650 124.770805,125.396698 
	C124.519760,124.561577 124.280495,124.050484 124.081894,123.076004 
	C123.982864,120.665451 123.987427,118.678291 124.073486,116.268036 
	C124.987976,107.118675 124.308952,98.370239 124.466400,89.230164 
	C124.411438,88.563553 124.376587,88.300797 124.261894,87.653946 
	C124.154228,86.753708 124.180031,86.240303 124.127975,85.373657 
	C123.956917,84.847260 123.919167,84.676956 123.809761,84.255020 
	C123.640076,83.806664 123.542061,83.609947 123.248001,83.148193 
	C122.635811,76.350296 114.089645,67.786163 107.037361,67.697891 
	C101.321648,67.626343 95.118019,66.524193 90.171829,71.614288 
	C86.696465,75.293915 83.411644,78.684669 82.749336,84.070984 
	C81.330177,88.055283 82.152893,91.710571 82.753708,95.683517 
	C83.091339,96.590736 83.238434,97.177994 83.663269,97.896240 
	C85.174156,99.863815 86.657455,101.533951 87.809059,103.826569 
	C88.029198,104.435310 88.185608,104.691811 88.692474,104.937073 
	C92.626457,106.580765 95.914459,109.320641 100.656723,109.246841 
	C105.125092,110.850632 109.539192,109.083778 113.854614,111.000137 
	C114.098801,111.351830 113.979553,111.489632 114.039825,111.557968 
	C114.882355,114.541138 114.371826,117.506050 114.268921,120.910965 
	C114.096031,121.373466 113.966499,121.522667 114.022186,121.604271 
	C111.849236,124.207954 108.967125,123.714142 106.286491,123.039513 
	C104.484024,122.585899 102.723755,122.576447 100.459122,122.321579 
	C88.948936,122.529373 76.443779,113.487228 72.035500,97.692757 
	C71.903671,97.220413 71.778343,96.746254 71.306274,96.118332 
	C70.001076,91.935471 70.681984,87.854248 70.808556,83.391724 
	C71.046928,82.984856 70.984741,82.986343 70.987289,83.017342 
	C71.124390,82.905380 71.258942,82.762413 71.567947,82.382179 
	C74.674438,68.433044 82.917496,59.710617 96.778519,55.810440 
	C101.039886,53.148823 105.105148,53.546619 109.619705,55.036419 
z"/>
<path fill="#CE4A35" opacity="1.000000" stroke="none" 
	d="
M124.690216,122.572601 
	C124.883141,123.465385 124.927414,123.915047 124.908073,124.698685 
	C123.500763,124.688240 122.984482,123.749161 123.011856,122.443268 
	C123.262337,110.494728 122.460922,98.534477 123.928017,86.651276 
	C125.572830,96.210556 125.005753,105.737900 124.734665,115.250381 
	C124.669449,117.538773 124.553200,119.834175 124.690216,122.572601 
z"/>
<path fill="#D35E4B" opacity="1.000000" stroke="none" 
	d="
M100.309258,110.215446 
	C95.612144,110.294510 92.478004,107.801445 89.057747,105.332886 
	C97.024361,108.155304 105.528526,109.033684 114.154747,109.680489 
	C109.736084,111.110046 105.219063,110.245407 100.309258,110.215446 
z"/>
<path fill="#D35E4B" opacity="1.000000" stroke="none" 
	d="
M81.806503,84.144402 
	C82.321495,78.505417 84.970482,74.723289 89.630371,71.930748 
	C89.855812,74.883751 86.934326,76.028687 85.759987,78.372002 
	C83.559593,82.762756 82.809822,87.368294 82.920486,92.642525 
	C80.053322,90.608398 82.081390,87.384048 81.806503,84.144402 
z"/>
<path fill="#D64A35" opacity="1.000000" stroke="none" 
	d="
M137.536346,122.880936 
	C137.123291,122.559486 137.076447,122.098221 137.089966,121.292786 
	C137.963593,110.225212 137.270676,99.484985 137.744476,87.884209 
	C139.262848,88.184464 138.990250,89.746361 138.992889,91.215034 
	C139.009247,100.354652 139.019867,109.494385 138.981903,118.633873 
	C138.975983,120.062813 139.437927,121.684822 137.536346,122.880936 
z"/>
<path fill="#DE4F35" opacity="1.000000" stroke="none" 
	d="
M113.718605,122.920166 
	C111.430321,126.518608 108.344513,124.945541 105.164368,123.786850 
	C107.603905,121.402794 110.597488,122.963470 113.718605,122.920166 
z"/>
<path fill="#F99B89" opacity="1.000000" stroke="none" 
	d="
M109.866364,54.906693 
	C106.016602,55.847137 101.867508,53.881588 97.558090,55.780083 
	C97.607536,55.188259 98.051895,54.660252 98.757751,54.042583 
	C102.032417,53.016785 105.113441,53.674652 108.572876,53.773777 
	C109.231880,54.218994 109.479744,54.454113 109.866364,54.906693 
z"/>
<path fill="#FFDDD4" opacity="1.000000" stroke="none" 
	d="
M114.126595,122.880692 
	C111.334770,123.284042 108.612488,123.290245 105.444946,123.379990 
	C103.486908,123.236900 101.974152,123.010277 100.223083,122.484360 
	C104.379700,122.115738 108.774620,122.046410 113.623703,121.831482 
	C114.117294,121.951767 114.156723,122.217651 114.126595,122.880692 
z"/>
<path fill="#FFD8CB" opacity="1.000000" stroke="none" 
	d="
M100.081078,110.386551 
	C104.327721,109.981117 108.775337,109.972343 113.703812,109.971588 
	C114.186638,110.208900 114.188614,110.438194 114.144691,111.009659 
	C109.493217,111.162285 104.887642,110.972748 100.081078,110.386551 
z"/>
<path fill="#D35E4B" opacity="1.000000" stroke="none" 
	d="
M88.004074,103.728020 
	C86.235397,102.641922 83.746063,101.725952 83.967484,98.392303 
	C86.568077,98.832771 87.617783,100.842125 88.004074,103.728020 
z"/>
<path fill="#FECDC1" opacity="1.000000" stroke="none" 
	d="
M81.658966,83.962402 
	C82.351494,86.625259 81.409676,89.560600 82.635269,92.754128 
	C82.877480,93.089943 82.932167,93.053398 82.902054,93.043266 
	C83.330528,93.359505 83.524353,93.801903 83.269714,94.701035 
	C83.085945,95.041779 82.998230,95.520210 82.971237,95.761841 
	C79.602371,92.457237 81.259903,88.204842 81.658966,83.962402 
z"/>
<path fill="#F79A86" opacity="1.000000" stroke="none" 
	d="
M70.785820,83.303993 
	C70.995926,87.005783 70.944923,91.026711 70.928238,95.505676 
	C69.476593,91.897728 69.649467,87.772888 70.785820,83.303993 
z"/>
<path fill="#D65034" opacity="1.000000" stroke="none" 
	d="
M108.683624,53.723206 
	C105.963608,53.982033 102.943207,53.980190 99.471024,53.965637 
	C102.060059,52.251953 105.224220,52.906494 108.683624,53.723206 
z"/>
<path fill="#ED9D8E" opacity="1.000000" stroke="none" 
	d="
M114.368248,121.038704 
	C114.069229,118.454796 114.042427,115.536125 114.057861,112.121880 
	C115.701515,114.567574 115.065140,117.642059 114.368248,121.038704 
z"/>
<path fill="#D35E4B" opacity="1.000000" stroke="none" 
	d="
M83.271423,94.860596 
	C82.997780,94.598457 82.909615,94.155136 82.846695,93.372475 
	C83.568558,93.403648 83.899948,93.903938 83.271423,94.860596 
z"/>
<path fill="#D64A35" opacity="1.000000" stroke="none" 
	d="
M137.331909,87.333160 
	C137.120407,86.906136 137.086288,86.724548 137.111176,86.272232 
	C137.432083,86.150452 137.642532,86.352875 137.890335,86.811005 
	C137.979126,87.013245 137.936508,87.062088 137.914215,87.085602 
	C137.764374,87.265602 137.636841,87.422089 137.331909,87.333160 
z"/>
<path fill="#CE4A35" opacity="1.000000" stroke="none" 
	d="
M123.968330,85.245209 
	C124.361969,85.001350 124.637543,85.152443 124.818741,85.717178 
	C124.716896,86.169495 124.617706,86.375488 124.292542,86.323532 
	C124.066551,86.065582 123.997047,85.998405 123.961014,85.964645 
	C123.924988,85.930878 123.942001,85.472855 123.968330,85.245209 
z"/>
<path fill="#CE4A35" opacity="1.000000" stroke="none" 
	d="
M123.103226,83.103699 
	C123.310204,83.089867 123.568459,83.296570 123.782410,83.753326 
	C123.475777,83.835243 123.281250,83.608864 123.103226,83.103699 
z"/>
<path fill="#F79A86" opacity="1.000000" stroke="none" 
	d="
M71.612778,82.291718 
	C71.844856,82.489662 71.731621,82.734985 71.196259,82.964615 
	C71.199890,82.881950 71.364326,82.678680 71.612778,82.291718 
z"/>
<path fill="#FFA696" opacity="1.000000" stroke="none" 
	d="
M124.034912,86.528137 
	C124.066551,86.065582 124.441582,86.015076 124.628838,85.989288 
	C124.873215,86.125412 124.930344,86.287308 125.037254,86.701889 
	C125.975792,96.329689 125.307190,105.724770 125.278435,115.565811 
	C125.071716,118.063263 125.034271,120.104378 124.917847,122.580612 
	C123.168129,120.607597 124.097839,117.891022 124.061790,115.338676 
	C123.928337,105.890961 124.005348,96.440269 124.034912,86.528137 
z"/>
<path fill="#FFA494" opacity="1.000000" stroke="none" 
	d="
M137.088745,87.546150 
	C137.154526,87.087730 137.523880,87.083145 137.707886,87.096130 
	C137.838058,98.191093 137.784225,109.273071 137.440353,120.651825 
	C137.107864,109.967270 137.065399,98.985916 137.088745,87.546150 
z"/>
<path fill="#FFFFFF" opacity="1.000000" stroke="none" 
	d="
M125.489174,115.813576 
	C125.078178,106.645592 125.047203,97.269051 125.051636,87.423531 
	C126.914413,89.244987 125.898529,91.917206 125.941444,94.388100 
	C126.064240,101.457848 125.912796,108.532372 125.489174,115.813576 
z"/>
</svg>